# xmcd
#
# Track frame offsets:
#	150
#	11338
#	21824
#	32555
#	41756
#	55244
#	69076
#	82372
#	94016
#	106849
#	118675
#	131551
#	143853
#	155246
#	168250
#	181191
#	195997
#	207676
#
# Disc length: 2921 seconds
#
# Revision: 1
# Processed by: cddbd v1.5.2PL0 Copyright (c) Steve Scherf et al.
# Submitted via: audiograbber 1.83.01
#
DISCID=f30b6712
DTITLE=Ray Charles - Ray Charles Collection Vol. 1
DYEAR=1900
DGENRE=Blues
TTITLE0=A Sentimental Blues
TTITLE1=Ain't That Fine
TTITLE2=All The Girls In Town (They're Crazy About Me)
TTITLE3=All To Myself Alone
TTITLE4=Alone In The City
TTITLE5=Baby Let Me Hold Your Hand
TTITLE6=Baby Won't you Please Come Home
TTITLE7=Back Home
TTITLE8=Blues Before Sunrise
TTITLE9=C.C. Rider (See What You Have Done)
TTITLE10=Can Anyone Ask For Me
TTITLE11=Can't You See My Darling
TTITLE12=Confession Blues
TTITLE13=Don't Put All Your Dreams In One Basket
TTITLE14=Feelin' Sad
TTITLE15=Funny (But I Still Love You)
TTITLE16=Guitar Blues
TTITLE17=Here I Am (All Alone Again)
EXTD=
EXTT0=
EXTT1=
EXTT2=
EXTT3=
EXTT4=
EXTT5=
EXTT6=
EXTT7=
EXTT8=
EXTT9=
EXTT10=
EXTT11=
EXTT12=
EXTT13=
EXTT14=
EXTT15=
EXTT16=
EXTT17=
PLAYORDER=
